<svg xmlns="http://www.w3.org/2000/svg" viewBox="0 0 64 64">
  <g fill="#dcdde1">
    <path d="M53.135 0H20.22A1.86 1.86 0 0018.9.55L9.546 9.953A1.88 1.88 0 009 11.28v50.845A1.87 1.87 0 0010.865 64h42.27A1.87 1.87 0 0055 62.125V1.875A1.87 1.87 0 0053.135 0zm-34.81 31.375h9.945c1.03 0 1.865.84 1.865 1.875a1.87 1.87 0 01-1.865 1.875h-9.946a1.87 1.87 0 01-1.865-1.875 1.87 1.87 0 011.865-1.875zm27.35 22.5H35.73A1.87 1.87 0 0133.865 52a1.87 1.87 0 011.865-1.875h9.946c1.03 0 1.865.84 1.865 1.875a1.87 1.87 0 01-1.865 1.875zm0-9.375h-27.35a1.87 1.87 0 01-1.866-1.875 1.87 1.87 0 011.865-1.875h27.352c1.03 0 1.865.84 1.865 1.875a1.87 1.87 0 01-1.865 1.875z"/>
  </g>
</svg>