<svg xmlns="http://www.w3.org/2000/svg" viewBox="0 0 64 64">
  <path fill="#192549" d="M59.28 0H4.73A4.66 4.66 0 0 0 0 4.58v54.83A4.66 4.66 0 0 0 4.73 64h54.55A4.66 4.66 0 0 0 64 59.4V4.58A4.66 4.66 0 0 0 59.28 0zM19.4 53.57H9.74v-28.9h9.66zm-4.83-32.84h-.06c-3.25 0-5.35-2.22-5.35-5 0-2.83 2.16-4.98 5.47-4.98 3.3 0 5.34 2.15 5.4 4.98 0 2.78-2.09 5-5.46 5zm39.7 32.84H44.6V38.11c0-3.88-1.4-6.53-4.9-6.53-2.68 0-4.26 1.78-4.96 3.51a6.46 6.46 0 0 0-.32 2.34v16.14h-9.67s.13-26.18 0-28.9h9.67v4.1C35.7 26.8 38 24 43.12 24c6.37 0 11.14 4.12 11.14 13zm-19.91-24.7l.06-.1v.1z"/>
</svg>