<svg xmlns="http://www.w3.org/2000/svg" viewBox="0 0 600 175">
  <g>
    <path d="M0 33.98v82.06h55.6c14.6 0 14.18-23.1 0-23.1H26.8c-29.15 0-29.17-44.77 0-44.77h54.47c-8.7-8.59-21.03-14.19-37.04-14.19z" fill="#dcdde1"/>
    <path d="M26.79 59.03c-13.8 0-13.69 23.05 0 23.05H55.6c28.92 0 28.92 44.65 0 44.65H0v14.14h44.22c48.12 0 63.23-50.25 45.36-81.84z" fill="#dcdde1"/>
  </g>
  <g fill="#dcdde1">
    <path d="M127.13 40.87q0-6.25 2.26-11.78 2.39-5.53 6.32-9.5 4.06-4.08 9.43-6.37 5.48-2.4 11.8-2.4 7.16 0 13.48 3.36 6.32 3.25 10.38 8.66V0h5.96v40.87q0 6.37-2.39 11.9-2.26 5.4-6.32 9.5-3.93 3.96-9.42 6.37-5.49 2.28-11.69 2.28-6.32 0-11.8-2.28-5.37-2.4-9.43-6.38-3.93-4.08-6.32-9.5-2.26-5.52-2.26-11.9zm5.96 0q0 4.93 1.9 9.37 1.92 4.33 5.14 7.58 3.22 3.24 7.51 5.17 4.41 1.92 9.3 1.92 4.9 0 9.19-1.92 4.41-1.93 7.63-5.17 3.22-3.25 5.13-7.58 1.9-4.44 1.9-9.37 0-4.93-1.9-9.26-1.91-4.44-5.13-7.69-3.22-3.25-7.63-5.17-4.3-1.92-9.19-1.92t-9.3 1.92q-4.3 1.92-7.51 5.17-3.22 3.25-5.13 7.7-1.91 4.32-1.91 9.25z"/>
    <path d="M223.8 10.82q6.08 0 11.45 2.4 5.37 2.29 9.42 6.37 4.17 3.97 6.56 9.5 2.39 5.53 2.39 11.78 0 6.37-2.39 11.9-2.39 5.4-6.56 9.5-4.05 3.96-9.42 6.37-5.37 2.28-11.45 2.28-6.32 0-11.8-2.28-5.38-2.4-9.43-6.38-3.94-4.08-6.32-9.5-2.27-5.52-2.27-11.9 0-6.24 2.27-11.77 2.38-5.53 6.32-9.5 4.05-4.08 9.42-6.37 5.49-2.4 11.8-2.4zm0 54.09q4.89 0 9.18-1.92 4.42-1.93 7.64-5.17 3.22-3.25 5.12-7.58 1.91-4.44 1.91-9.37 0-4.93-1.9-9.26-1.91-4.44-5.13-7.69-3.22-3.25-7.64-5.17-4.3-1.92-9.18-1.92-4.9 0-9.3 1.92-4.3 1.92-7.52 5.17-3.22 3.25-5.13 7.7-1.9 4.32-1.9 9.25t1.9 9.37q1.91 4.33 5.13 7.58 3.22 3.24 7.52 5.17 4.4 1.92 9.3 1.92z"/>
    <path d="M290.65 70.92q-6.32 0-11.8-2.28-5.37-2.4-9.43-6.38-3.93-4.08-6.32-9.5-2.26-5.52-2.26-11.9V10.83h5.96v30.05q0 4.93 1.9 9.37 1.92 4.33 5.14 7.58 3.22 3.24 7.51 5.17 4.41 1.92 9.3 1.92 4.9 0 9.19-1.92 4.41-1.93 7.63-5.17 3.22-3.25 5.13-7.58 1.9-4.44 1.9-9.37V10.82h5.97v30.05q0 6.37-2.38 11.9-2.39 5.4-6.56 9.5-4.06 3.96-9.43 6.37-5.36 2.28-11.45 2.28z"/>
    <path d="M357.51 10.82q6.2 0 11.69 2.4 5.48 2.29 9.42 6.37 4.06 3.97 6.32 9.5 2.39 5.53 2.39 11.78 0 6.37-2.39 11.9-2.26 5.4-6.32 9.5-3.94 3.96-9.42 6.37-5.49 2.28-11.69 2.28-6.32 0-11.8-2.28-5.37-2.4-9.43-6.38-3.94-4.08-6.32-9.5-2.27-5.52-2.27-11.9V0h5.97v22.84q4.05-5.41 10.37-8.66 6.32-3.36 13.48-3.36zm0 54.09q4.89 0 9.18-1.92 4.42-1.93 7.64-5.17 3.22-3.25 5.13-7.58 1.9-4.44 1.9-9.37 0-4.93-1.9-9.26-1.91-4.44-5.13-7.69-3.22-3.25-7.64-5.17-4.29-1.92-9.18-1.92t-9.3 1.92q-4.3 1.92-7.52 5.17-3.22 3.25-5.13 7.7-1.9 4.32-1.9 9.25t1.9 9.37q1.91 4.33 5.13 7.58 3.22 3.24 7.52 5.17 4.41 1.92 9.3 1.92z"/>
    <path d="M400.51 70.92h-5.96V0h5.96z"/>
    <path d="M437.41 64.9q7.63 0 13.48-4.08 5.84-4.08 8.59-10.94h6.55q-1.55 4.57-4.4 8.42-2.75 3.84-6.57 6.6-3.7 2.77-8.23 4.46-4.53 1.56-9.42 1.56-6.32 0-11.8-2.28-5.37-2.4-9.43-6.38-3.94-4.08-6.32-9.5-2.27-5.52-2.27-11.9 0-6.24 2.27-11.77 2.38-5.53 6.32-9.5 4.06-4.08 9.42-6.37 5.49-2.4 11.81-2.4 6.2 0 11.69 2.4 5.49 2.29 9.42 6.37 4.06 3.97 6.32 9.5 2.39 5.53 2.39 11.78v3h-53.67q.71 4.57 2.74 8.42 2.15 3.84 5.37 6.6 3.22 2.77 7.15 4.46 4.06 1.56 8.59 1.56zm0-48.07q-4.53 0-8.59 1.68-3.93 1.56-7.15 4.33-3.22 2.76-5.37 6.73-2.03 3.85-2.74 8.3h47.7q-.71-4.45-2.86-8.3-2.03-3.97-5.25-6.73-3.22-2.77-7.27-4.33-4.06-1.68-8.47-1.68z"/>
  </g>
  <g fill="#dcdde1">
    <path d="M143.58 102.88q-4.53 0-7.63 2.88-3.1 2.77-3.1 7.34 0 4.56 3.1 7.69 3.1 3.12 7.63 3.12h26.84q3.34 0 6.2 1.33 2.98 1.2 5.13 3.48 2.27 2.17 3.46 5.17 1.31 2.89 1.31 6.25 0 3.37-1.31 6.5-1.2 3-3.46 5.28-2.15 2.28-5.13 3.73-2.86 1.32-6.2 1.32h-43.53v-6.01h43.53q4.05 0 7.04-3.13 3.1-3.12 3.1-7.69t-3.1-7.33q-2.99-2.89-7.04-2.89h-26.84q-3.57 0-6.68-1.32-2.98-1.44-5.24-3.72-2.27-2.29-3.58-5.3-1.2-3.12-1.2-6.48 0-3.37 1.2-6.25 1.31-3.01 3.58-5.17 2.26-2.29 5.24-3.49 3.1-1.32 6.68-1.32h42.94v6z"/>
    <path d="M223.56 96.87q6.08 0 11.45 2.4 5.37 2.29 9.42 6.37 4.17 3.97 6.56 9.5 2.39 5.53 2.39 11.78 0 6.37-2.39 11.9-2.39 5.4-6.56 9.5-4.05 3.96-9.42 6.37-5.37 2.28-11.45 2.28-6.32 0-11.8-2.28-5.38-2.4-9.43-6.37-3.94-4.1-6.32-9.5-2.27-5.53-2.27-11.9 0-6.25 2.27-11.78 2.38-5.53 6.32-9.5 4.05-4.08 9.42-6.37 5.49-2.4 11.8-2.4zm0 54.09q4.89 0 9.18-1.92 4.42-1.93 7.64-5.17 3.22-3.25 5.12-7.58 1.91-4.44 1.91-9.37 0-4.93-1.9-9.26-1.91-4.44-5.13-7.69-3.22-3.24-7.64-5.17-4.3-1.92-9.18-1.92-4.9 0-9.3 1.92-4.3 1.93-7.52 5.17-3.22 3.25-5.13 7.7-1.9 4.32-1.9 9.25t1.9 9.37q1.91 4.33 5.13 7.58 3.22 3.24 7.52 5.17 4.4 1.92 9.3 1.92z"/>
    <path d="M266.56 156.97h-5.96V86.05h5.96z"/>
    <path d="M303.46 156.97q-6.32 0-11.8-2.28-5.38-2.4-9.43-6.37-3.94-4.1-6.32-9.5-2.27-5.53-2.27-11.9V96.87h5.97v30.05q0 4.93 1.9 9.37 1.91 4.33 5.13 7.58 3.22 3.24 7.52 5.17 4.4 1.92 9.3 1.92 4.89 0 9.18-1.92 4.42-1.93 7.64-5.17 3.22-3.25 5.12-7.58 1.91-4.44 1.91-9.37V96.87h5.97v30.05q0 6.37-2.39 11.9-2.38 5.4-6.56 9.5-4.05 3.96-9.42 6.37-5.37 2.28-11.45 2.28z"/>
    <path d="M370.31 150.96q4.06 0 7.76-1.32 3.7-1.45 6.68-3.85 3.1-2.4 5.12-5.65 2.15-3.36 3.1-7.21h6.57q-1.8 8.17-7.28 14.18-5.49 5.9-13.6 8.66 1.32 1.32 2.15 3.12.84 1.8.84 4.09 0 5.05-3.46 8.53-3.46 3.49-8.47 3.49v-6.01q2.26 0 4.05-1.68 1.91-1.57 1.91-4.33 0-2.28-1.9-4.2-1.8-1.81-4.06-1.81-6.08-.24-11.45-2.64-5.25-2.4-9.19-6.5-3.93-4.08-6.32-9.37-2.26-5.41-2.26-11.54 0-6.25 2.26-11.78 2.39-5.53 6.32-9.5 4.06-4.08 9.43-6.37 5.48-2.4 11.8-2.4 5.37 0 10.14 1.8 4.9 1.8 8.7 5.05 3.83 3.25 6.57 7.7 2.74 4.32 3.82 9.49h-6.56q-.96-3.85-3.1-7.1-2.03-3.36-5.13-5.76-2.99-2.4-6.68-3.73-3.7-1.44-7.76-1.44-4.89 0-9.3 1.92-4.3 1.93-7.51 5.17-3.22 3.25-5.13 7.7-1.9 4.32-1.9 9.25t1.9 9.37q1.9 4.33 5.13 7.58 3.22 3.24 7.51 5.17 4.41 1.92 9.3 1.92z"/>
    <path d="M436.47 96.87q6.08 0 11.45 2.4 5.37 2.29 9.42 6.37 4.18 3.97 6.56 9.5 2.39 5.53 2.39 11.78 0 6.37-2.39 11.9-2.38 5.4-6.56 9.5-4.05 3.96-9.42 6.37-5.37 2.28-11.45 2.28-6.32 0-11.8-2.28-5.37-2.4-9.43-6.37-3.93-4.1-6.32-9.5-2.27-5.53-2.27-11.9 0-6.25 2.27-11.78 2.39-5.53 6.32-9.5 4.06-4.08 9.42-6.37 5.49-2.4 11.81-2.4zm0 54.09q4.9 0 9.19-1.92 4.4-1.93 7.63-5.17 3.22-3.25 5.13-7.58 1.9-4.44 1.9-9.37 0-4.93-1.9-9.26-1.91-4.44-5.13-7.69-3.22-3.24-7.63-5.17-4.3-1.92-9.19-1.92t-9.3 1.92q-4.3 1.93-7.52 5.17-3.22 3.25-5.12 7.7-1.91 4.32-1.91 9.25t1.9 9.37q1.91 4.33 5.13 7.58 3.22 3.24 7.52 5.17 4.41 1.92 9.3 1.92zm14.91-58.78q-2.39 3-4.89 3.37-2.39.36-4.89-.6-2.39-1.09-4.89-2.77-2.5-1.68-5-2.64-2.51-1.09-5.14-.73-2.5.37-5 3.37v-6.01q2.5-3 5-3.37 2.63-.36 5.13.73 2.5.96 5.01 2.64 2.5 1.68 4.89 2.77 2.5.96 4.89.6 2.5-.36 4.89-3.37z"/>
    <path d="M503.33 150.96q7.63 0 13.47-4.09 5.85-4.08 8.6-10.94h6.55q-1.55 4.57-4.41 8.42-2.74 3.84-6.56 6.61-3.7 2.76-8.23 4.45-4.53 1.56-9.42 1.56-6.32 0-11.81-2.28-5.37-2.4-9.42-6.37-3.94-4.1-6.32-9.5-2.27-5.53-2.27-11.9 0-6.25 2.27-11.78 2.38-5.53 6.32-9.5 4.05-4.08 9.42-6.37 5.49-2.4 11.8-2.4 6.2 0 11.7 2.4 5.48 2.29 9.42 6.37 4.05 3.97 6.32 9.5 2.38 5.53 2.38 11.78v3h-53.67q.72 4.57 2.75 8.42 2.14 3.84 5.36 6.6 3.22 2.77 7.16 4.46 4.05 1.56 8.59 1.56zm0-48.08q-4.54 0-8.59 1.68-3.94 1.56-7.16 4.33-3.22 2.76-5.36 6.73-2.03 3.85-2.75 8.3h47.71q-.71-4.45-2.86-8.3-2.03-3.97-5.25-6.73-3.22-2.77-7.27-4.33-4.06-1.68-8.47-1.68z"/>
    <path d="M557.06 102.88q-4.53 0-7.63 2.88-3.1 2.77-3.1 7.34 0 4.56 3.1 7.69 3.1 3.12 7.63 3.12h26.84q3.34 0 6.2 1.33 2.98 1.2 5.13 3.48 2.27 2.17 3.46 5.17 1.31 2.89 1.31 6.25 0 3.37-1.31 6.5-1.2 3-3.46 5.28-2.15 2.28-5.13 3.73-2.86 1.32-6.2 1.32h-43.53v-6.01h43.53q4.05 0 7.04-3.13 3.1-3.12 3.1-7.69t-3.1-7.33q-2.99-2.89-7.04-2.89h-26.84q-3.57 0-6.68-1.32-2.98-1.44-5.24-3.72-2.27-2.29-3.58-5.3-1.2-3.12-1.2-6.48 0-3.37 1.2-6.25 1.31-3.01 3.58-5.17 2.26-2.29 5.24-3.49 3.1-1.32 6.68-1.32H600v6z"/>
  </g>
</svg>