<svg xmlns="http://www.w3.org/2000/svg" viewBox="0 0 64 64">
  <g>
    <g fill="#dcdde1">
      <path d="M45.125 24.795v5.348c0 .703-.401 1.347-1.036 1.662l-8.293 4.105a10.265 10.265 0 00-2.5 1.744 1.89 1.89 0 01-2.592 0c-.74-.701-1.582-1.288-2.5-1.744l-8.293-4.105a1.856 1.856 0 01-1.036-1.662v-5.348l11.58 3.277c.99.28 2.064.29 3.09 0zM52.625 22.672v11.186c0 1.025-.84 1.857-1.875 1.857a1.867 1.867 0 01-1.875-1.857V23.734zM31.485 24.5l-26.25-7.428c-1.806-.511-1.809-3.06 0-3.572l26.25-7.428a1.89 1.89 0 011.03 0l26.25 7.428c1.806.511 1.809 3.06 0 3.572L32.515 24.5a1.893 1.893 0 01-1.03 0z"/>
    </g>
    <g fill="#7f8fa6">
      <path d="M28.48 56.776c-2.077-1.652-5.066-2.49-8.882-2.49H1.875A1.866 1.866 0 010 52.43c0-1.025.84-1.857 1.875-1.857h17.723c4.691 0 8.47 1.113 11.23 3.307.684.544 1.66.544 2.344 0 2.76-2.194 6.539-3.307 11.23-3.307h17.723c1.035 0 1.875.832 1.875 1.857 0 1.026-.84 1.857-1.875 1.857H44.402c-3.816 0-6.805.838-8.883 2.49a5.67 5.67 0 01-7.038 0z"/>
      <path d="M28.48 49.237c-2.077-1.652-3.066-2.49-6.882-2.49H9.875A1.866 1.866 0 018 44.89c0-1.025.84-1.857 1.875-1.857h11.723c4.691 0 6.47 1.113 9.23 3.307.684.544 1.66.545 2.344 0 2.76-2.194 4.539-3.307 9.23-3.307h11.723c1.035 0 1.875.832 1.875 1.857 0 1.026-.84 1.858-1.875 1.858H42.402c-3.816 0-4.805.837-6.883 2.49a5.67 5.67 0 01-7.038 0z"/>
    </g>
  </g>
</svg>